# xmcd CD database file
#
# Track frame offsets:
#	150
#	22951
#	52131
#	70827
#	96473
#	117891
#	143275
#	164636
#	187112
#	218388
#
# Disc length: 3371 seconds
#
# Revision: 0
# Processed by: cddbd v1.5PL3 Copyright (c) Steve Scherf et al.
# Submitted via: CDex 1.50beta10
#
DISCID=8b0d290a
DTITLE=Jimmy Dawkins - Tell Me Baby
DYEAR=2004
DGENRE=Blues
TTITLE0=Tell Me Baby
TTITLE1=Falling Tears
TTITLE2=Kotten Field Jump
TTITLE3=Mean O' Blues
TTITLE4=Gitar King
TTITLE5=Mid Nite Boogie
TTITLE6=Tired Of Krying
TTITLE7=Bring It Back
TTITLE8=Rumping 'N' Stomping
TTITLE9=Hard Life Blues
EXTD=YEAR: 2004
EXTT0=
EXTT1=
EXTT2=
EXTT3=
EXTT4=
EXTT5=
EXTT6=
EXTT7=
EXTT8=
EXTT9=
PLAYORDER=
